<?xml version="1.0" encoding="UTF-8"?>
<svg id="Capa_2" xmlns="http://www.w3.org/2000/svg" viewBox="0 0 620.57 773.39">
  <defs>
    <style>
      .cls-1 {
        fill: #e94e1b;
      }

      .cls-2 {
        fill: #2a8835;
      }

      .cls-3 {
        fill: #f9b233;
      }

      .cls-4 {
        fill: #662483;
      }

      .cls-5 {
        fill: #be1622;
      }
    </style>
  </defs>
  <path class="cls-2" d="M262.09,132.62l-13.5,80.11-96.15,163.48,140.84,7.1-7.8,49.16H101.27l-24.79-104.28,130.95-130.17-130.26,6.1-20.44-71.5h205.37Z"/>
  <path class="cls-4" d="M285.47,444.87l-10.66,57.11-75.57,9.54-7.8,49.17,72.02-14.88-9.77,62.98-58.26,5.83,10.29,87.06-57.29-9.38-43.84-241.79,180.89-5.64Z"/>
  <path class="cls-3" d="M373.06,454.33l-.84,47.68-43.1-2.81-11.25,43.35,30.74,2.94-3.34,34.91-34.91-3.34-22.85,102.4,53.55-22.63-.95,46.92-56.16,10.54-42.86-8.45,56.36-260.97,75.6,9.46Z"/>
  <path class="cls-5" d="M553.4,450.56l-1.5,66.38-37.21-4.86-34.63,189.42-41.38-6.97,26.04-181.26-71.07-12.6,3.12-44.01,156.64-6.09Z"/>
  <polygon class="cls-1" points="347.6 734.24 293.1 746.16 157.76 721.21 153.77 703.36 294.52 726.25 349.18 718.48 380.77 734.24 431.95 704.62 481.93 711.41 479.08 726.86 433.85 719.31 381.85 750.35 347.6 734.24"/>
  <polygon class="cls-2" points="453.99 522.86 451.2 545.85 398.94 528.36 383.54 535.35 381.11 577.8 441.91 634.16 432.18 694.63 382.47 722.07 349.19 703.36 347.41 653.39 365.89 633.49 367.85 689.98 383.65 698.5 403.77 683.7 403.32 647.08 356.05 581.44 361.72 523.68 393.64 506.68 453.99 522.86"/>
  <path class="cls-3" d="M360.16,21.33l-54.92,46.5-13.24,54.52,11.23,8.42-2.85,10.11-22.06-4.58-40.76,225.93,57.51,9.33,45.3-222.38-19.95-4.14,39.73-123.71ZM309.27,86.56l-4.11-2.2,3.79-14.45,46.44-41.7-41.67,42.82-4.45,15.54Z"/>
  <path class="cls-5" d="M383.56,167.4l.83-12.95-3.51-.29-.42-9.01,21.02-16.29,8.26-90.01-5.78-13.83-11.07,73.74-8.96-2.53,7.7-49.52-3.99-13.75-8.92,13.99-6.9,47.26-5.52-1.1,7.23-47.11-5.51-23.81-24.7,99.34,18.22,21.33-1.41,9.58-7.56-.63-1.95,13.18-46.1,265.33,68.85,9.93.86-161.31,119.69,7.09,34.6-42.04-27.96-82.94-116.99,6.38ZM406.44,39.7l-1.6-5.51,2.84,5.15-6.22,63.27-2.84-1.24,7.82-61.67ZM459.41,262.91l-73.08-12.32v-57.98l93.36-11.22,13.27,54.03-33.56,27.49Z"/>
  <path class="cls-4" d="M507.64,297.06l-109.03-5.2-1.73,148.36,33.55-.39.92-31.16c.55-1.2,18.12-6.26,26.63-7.63,2.35-.38,4.01-.46,4.43-.16l12.22,37.76,37.26-1.6-4.25-139.97ZM477.73,372.66l-48.72,15.89-4.84-66.68h53.55v50.79Z"/>
</svg>