<?xml version="1.0" encoding="UTF-8"?>
<svg id="Capa_2" xmlns="http://www.w3.org/2000/svg" viewBox="0 0 930.6 514.52">
  <defs>
    <style>
      .cls-1 {
        fill: #e94e1b;
      }

      .cls-2 {
        fill: #2a8835;
      }

      .cls-3 {
        fill: #f9b233;
      }

      .cls-4 {
        fill: #662483;
      }

      .cls-5 {
        fill: #be1622;
      }
    </style>
  </defs>
  <path class="cls-2" d="M250.11,134.97l-13.08,77.62-93.17,158.4,136.47,6.88-7.56,47.64H94.28l-24.02-101.05,126.89-126.13-126.22,5.91-19.81-69.29h198.99Z"/>
  <path class="cls-2" d="M691.67,150.76l-3.06,40.97-110.25,20.68-6.45,40.66,69.78-14.42-9.46,61.02-56.46,5.65-27.25,124.92h-39.14l15.82-189.44-19.11-58.57-7.03-21.55,192.61-9.93Z"/>
  <path class="cls-3" d="M633.74,309.44l-3.64,25.08-25-5.33-7.43,28.64,19.74,1.45-1.46,15.28-21.56-1.62-10.01,44.83,32.78-13.85,1.22,26.32-35.55,2.78-18.77-3.7,22.11-115.64,47.58-4.25Z"/>
  <path class="cls-5" d="M860.44,145.54l-1.46,64.32-36.05-4.71-42.6,228.48-40.1-6.75,34.27-220.58-68.87-12.21,3.03-42.64,151.78-5.91Z"/>
  <polygon class="cls-4" points="754.6 218.44 751.9 240.71 697.29 230.49 683.54 242.7 683.27 312 740.55 345.25 733.29 402.34 702.54 430.66 630.46 428.86 628.74 380.44 646.65 361.15 646.87 407.06 690.01 406.79 704.04 389.8 700.62 350.66 648.22 331.96 657.65 241.35 698.98 203.52 754.6 218.44"/>
  <path class="cls-3" d="M345.13,27.14l-53.22,45.06-12.83,52.83,10.88,8.16-2.76,9.79-21.38-4.44-39.49,218.92,55.73,9.04,43.89-215.48-19.33-4.01,38.5-119.87ZM295.82,90.35l-3.98-2.13,3.67-14.01,45-40.41-40.38,41.49-4.31,15.06Z"/>
  <path class="cls-5" d="M367.8,168.68l.8-12.55-3.41-.29-.4-8.73,20.36-15.79,8.01-87.22-5.6-13.4-10.72,71.45-8.68-2.46,7.46-47.99-3.87-13.33-8.65,13.56-6.69,45.8-5.34-1.07,7.01-45.64-5.34-23.08-23.94,96.26,17.65,20.66-1.36,9.28-7.33-.61-1.89,12.77-44.67,257.1,66.71,9.62.83-156.31,115.97,6.87,33.52-40.73-27.09-80.36-113.36,6.18ZM389.98,44.94l-1.55-5.34,2.76,4.99-6.03,61.3-2.76-1.21,7.58-59.75ZM441.3,261.23l-70.81-11.94v-56.18l90.46-10.87,12.86,52.35-32.51,26.63Z"/>
  <path class="cls-4" d="M488.03,294.31l-105.65-5.04-1.67,143.75,32.51-.38.89-30.19c.53-1.16,17.56-6.07,25.8-7.4,2.28-.37,3.89-.45,4.29-.15l11.84,36.59,36.1-1.55-4.12-135.63ZM459.05,367.57l-47.2,15.4-4.69-64.61h51.89v49.21Z"/>
  <polyline class="cls-1" points="783.04 464.49 734.56 459.64 619.69 459.64 576.81 464.49 546.88 454.79 492.15 459.64 414.2 464.49 353.53 464.49 291.22 454.79 98.7 454.79 98.7 437.66 291.22 437.66 353.53 447.37 414.2 447.37 492.15 442.52 546.88 437.66 576.81 447.37 619.69 442.52 734.56 442.52 783.04 447.37"/>
</svg>