<?xml version="1.0" encoding="UTF-8"?>
<svg id="Capa_2" xmlns="http://www.w3.org/2000/svg" viewBox="0 0 620.57 773.39">
  <defs>
    <style>
      .cls-1 {
        fill: #1d1d1b;
      }
    </style>
  </defs>
  <path class="cls-1" d="M251.78,137.84l-13.08,77.62-93.17,158.4,136.47,6.88-7.56,47.64H95.95l-24.02-101.05,126.89-126.13-126.22,5.91-19.81-69.29h198.99Z"/>
  <path class="cls-1" d="M274.43,440.41l-10.33,55.33-73.23,9.25-7.56,47.65,69.78-14.42-9.46,61.02-56.46,5.65,9.97,84.36-55.51-9.09-42.48-234.29,175.28-5.47Z"/>
  <path class="cls-1" d="M359.3,449.58l-.82,46.2-41.77-2.72-10.9,42,29.78,2.85-3.24,33.82-33.82-3.24-22.14,99.22,51.89-21.93-.92,45.46-54.42,10.22-41.53-8.18,54.62-252.88,73.26,9.17Z"/>
  <path class="cls-1" d="M534.05,445.92l-1.46,64.32-36.05-4.71-33.56,183.54-40.1-6.75,25.23-175.64-68.87-12.21,3.03-42.64,151.78-5.91Z"/>
  <polygon class="cls-1" points="334.63 720.79 281.82 732.35 150.68 708.17 146.81 690.88 283.2 713.06 336.16 705.53 366.77 720.79 416.37 692.09 464.79 698.67 462.04 713.64 418.2 706.33 367.82 736.41 334.63 720.79"/>
  <polygon class="cls-1" points="437.72 515.98 435.02 538.25 384.38 521.31 369.45 528.08 367.1 569.21 426.01 623.82 416.59 682.42 368.42 709.01 336.17 690.88 334.45 642.46 352.36 623.17 354.25 677.91 369.57 686.17 389.06 671.83 388.62 636.34 342.82 572.74 348.31 516.77 379.24 500.3 437.72 515.98"/>
  <path class="cls-1" d="M346.8,30.02l-53.22,45.06-12.83,52.83,10.88,8.16-2.76,9.79-21.38-4.44-39.49,218.92,55.73,9.04,43.89-215.48-19.33-4.01,38.5-119.87ZM297.49,93.22l-3.98-2.13,3.67-14.01,45-40.41-40.38,41.49-4.31,15.06Z"/>
  <path class="cls-1" d="M369.47,171.55l.8-12.55-3.41-.29-.4-8.73,20.36-15.79,8.01-87.22-5.6-13.4-10.72,71.45-8.68-2.46,7.46-47.99-3.87-13.33-8.65,13.56-6.69,45.8-5.34-1.07,7.01-45.64-5.34-23.08-23.94,96.26,17.65,20.66-1.36,9.28-7.33-.61-1.89,12.77-44.67,257.1,66.71,9.62.83-156.31,115.97,6.87,33.52-40.73-27.09-80.36-113.36,6.18ZM391.65,47.81l-1.55-5.34,2.76,4.99-6.03,61.3-2.76-1.21,7.58-59.75ZM442.97,264.1l-70.81-11.94v-56.18l90.46-10.87,12.86,52.35-32.51,26.63Z"/>
  <path class="cls-1" d="M489.7,297.19l-105.65-5.04-1.67,143.75,32.51-.38.89-30.19c.53-1.16,17.56-6.07,25.8-7.4,2.28-.37,3.89-.45,4.29-.15l11.84,36.59,36.1-1.55-4.12-135.63ZM460.72,370.44l-47.2,15.4-4.69-64.61h51.89v49.21Z"/>
</svg>