<?xml version="1.0" encoding="UTF-8"?>
<svg id="Capa_2" data-name="Capa 2" xmlns="http://www.w3.org/2000/svg" viewBox="0 0 296.82 379.83">
  <defs>
    <style>
      .cls-1 {
        fill: #0a6333;
      }
    </style>
  </defs>
  <g id="Capa_1-2" data-name="Capa 1">
    <ellipse class="cls-1" cx="115.56" cy="227.32" rx="4.47" ry="4.24" transform="translate(-133.9 174.4) rotate(-51.08)"/>
    <path class="cls-1" d="M.52,377.32s149.61-122.45,149.61-122.45c.41-.34.95-.4,1.42-.22,0,0,83.38,32.96,83.38,32.96,0,0-1.62.43-1.62.43,5.12-8.06,10.8-15.69,16.62-23.24,5.86-7.52,11.89-14.87,18.82-21.46,0,0,.93,3.06.93,3.06-23.14-1.93-44.97-10.46-66.53-18.55-7.22-2.87-14.39-5.92-21.4-9.46-1.21-.59-.91-2.42.38-2.63,0,0,108.69-19.74,108.69-19.74,0,0-1.16,1.36-1.16,1.36-1.07-4.85-1.65-9.68-2.06-14.51-1-14.5-1.28-29.15,2.49-43.33,0,0,3.02,2.38,3.02,2.38-8.04,2.86-16.17,5.35-24.34,7.7-16.34,4.71-32.84,8.82-49.46,12.46-8.31,1.82-16.65,3.52-25.09,4.88-.81.19-1.62-.32-1.75-1.14-.08-.53.13-1.03.52-1.34,0,0,81.5-63.56,81.5-63.56,0,0-.19,2.05-.19,2.05-14.88-13.98-28.93-28.97-40.97-45.48,0,0,2.82-.07,2.82-.07-3.93,7.54-8.86,14.35-14.08,20.97-10.56,13.05-21.37,25.88-32.48,38.46-5.55,6.3-11.2,12.52-17.02,18.61-.52.63-1.48.71-2.08.13-.35-.34-.49-.82-.41-1.27l20.17-113.1s1.03,1.62,1.03,1.62c-14.33-1.17-28.12-5.16-41.76-9.46-4.53-1.48-9.03-3.07-13.45-4.95,0,0,1.77-1.32,1.77-1.32,2.61,27.84,1.61,55.76-.43,83.58-.78,9.26-1.71,18.52-3.22,27.76-.05.84-.8,1.49-1.65,1.34-.56-.09-.98-.5-1.13-1.01L98.64,1.78l2.46.51c-2.93,4.82-6.06,9.49-9.25,14.1-9.57,13.7-19.68,27.33-30.78,39.84,0,0,.57-4.3.57-4.3,15.49,32.03,29.62,64.92,44,97.46,1.56,3.52,3.08,7.05,4.59,10.59.4.95.69,1.97.82,3,.93,6.59-4.94,12.68-11.56,11.87-4.67-.45-13.26-1.42-17.96-1.93-7.09-.82-14.18-1.66-21.26-2.66,0,0,2.23-1.15,2.23-1.15-5.59,8.78-11.22,17.55-17.04,26.18-.44.65-1.32.81-1.97.37-.6-.41-.78-1.21-.45-1.84,4.97-9.15,10.14-18.19,15.35-27.21.48-.82,1.34-1.21,2.23-1.15,7.15.03,14.28.23,21.42.44,4.46.16,13.07.44,17.38.65,0,0,.67.03.67.03.06,0,.16,0,.22,0,1.34,0,2.43-1.54,1.82-2.76-11-22.64-21.51-45.93-31.51-69.05-5.67-13.09-11.27-26.22-16.59-39.46-.6-1.49-.33-3.11.57-4.3,9.89-13.48,21.09-26.23,32.47-38.47,3.84-4.09,7.74-8.12,11.84-12.01.56-.62,1.53-.72,2.13-.08.5.14,32.81,117.2,33.07,117.6,0,0-2.77.33-2.77.33-1.71-18.58-1.66-37.16-1.16-55.77.62-18.61,1.75-37.15,4.81-55.57.15-.85.93-1.42,1.77-1.32,4.78.53,9.48,1.34,14.16,2.26,14,2.92,27.99,6.17,41.06,12.15.68.26,1.18.88,1.03,1.62,0,0-20.17,113.1-20.17,113.1l-2.49-1.14c4.72-6.97,9.61-13.8,14.61-20.55,9.96-13.51,20.23-26.78,30.76-39.85,5.42-6.55,11.08-12.86,17.69-18.31.79-.65,1.93-.6,2.67.06,3.83,3.42,7.41,7.06,10.93,10.76,10.5,11.24,20.47,22.96,29.49,35.43.43.61.3,1.46-.28,1.92l-81.5,63.56s-1.23-2.48-1.23-2.48c16.01-5.87,32.32-10.71,48.72-15.28,16.41-4.49,32.89-8.68,49.67-11.68,1.52-.28,2.86.9,3.02,2.38,2.15,9.6,2.18,19.25,1.7,28.97-.59,9.85-1.61,19.61-4.2,29.22-.14.51-.56.88-1.05.97,0,0-108.69,19.74-108.69,19.74,0,0,.17-2.74.17-2.74,7.7,1.08,15.25,2.63,22.75,4.35,18.64,4.55,37.33,9.32,54.9,17.17,3.51,1.62,7,3.32,10.37,5.38,1.12.55,1.6,1.98.93,3.06-4.99,8.16-10.91,15.6-17.02,22.91-6.15,7.28-12.42,14.44-19.22,21.14-.42.45-1.06.67-1.62.43,0,0-83.38-32.96-83.38-32.96l1.42-.22L2.31,379.51c-.6.49-1.49.41-1.99-.2-.49-.6-.41-1.49.2-1.99h0Z"/>
    <path class="cls-1" d="M134.65,247.6c-11.69,14.14-34.14,12.53-43.3-3.57-11.73-20.84,7.94-45.31,30.81-38.41,17.81,5.38,24.49,27.86,12.49,41.97h0ZM132.34,245.74c12.09-15.69-.5-38.07-20.07-35.94-19.29,2.18-26.58,26.43-11.79,39.03,9.1,8.03,24.52,6.77,31.86-3.09h0Z"/>
  </g>
</svg>