<?xml version="1.0" encoding="UTF-8"?>
<svg id="Capa_2" data-name="Capa 2" xmlns="http://www.w3.org/2000/svg" viewBox="0 0 487.8 716.71">
  <defs>
    <style>
      .cls-1 {
        fill: #0a6333;
      }
    </style>
  </defs>
  <g id="Capa_1-2" data-name="Capa 1">
    <path class="cls-1" d="M444.12,715.8c-29.33-37.31-58-75.81-86.07-114.06-20.94-28.93-42.45-57.47-61.99-87.38-6.46-10.02-12.78-20.13-18.52-30.67,0,0,3.3.6,3.3.6-31.23,26.83-69.53,48.23-109.75,58.16-21.64,5.07-45.47,6.37-66.64-2-22.58-8.76-40.77-30.26-42.84-54.73-4.34-48.69,42.7-99.09,78.88-126.31,0,0,2.35,4.1,2.35,4.1-5.71,3.3-11.61,5.89-17.66,8.22-34.28,13.26-90.5,19.79-115.76-13.34-9.29-12.66-12.73-30.33-5.65-44.76,17.82-36.84,86.04-50.57,123.45-53.89,0,0-1.2,4.23-1.2,4.21-31.57-19.36-59.32-49.86-73.33-84.42-21.47-55.01,2.4-100.05,52.77-126.59,69.91-37.13,121.67,13.13,144.53,77.54,1.55,4.36,2.94,8.7,4.12,13.25,0,0-4.7.85-4.7.85-1.29-7.31-1.96-14.59-2.36-21.93-1.08-22.24.39-44.3,6.03-66.14C259.93,29.8,276.48-1.83,308.63.08c16.81.74,32.66,10.01,41.76,24.04,18.12,28.18,17.37,66.77,14.22,98.83-1.65,14.55-4.05,28.92-7.66,43.11,0,0-4.41-1.76-4.41-1.76,13.83-24.6,30.13-47.61,49.35-68.36,18.95-20.21,57.08-53.98,80.93-22.66,14.83,22.84-6.85,57.32-19.84,76.64-16.1,23.16-34.67,44.23-54.75,63.96,0,0,.11-3.3.11-3.3,16.75,18,33.1,36.37,49.18,54.96,5.35,6.21,10.63,12.47,15.83,18.82.84,1.03.69,2.55-.34,3.39-.98.81-2.42.7-3.28-.21-5.64-5.95-11.19-11.99-16.68-18.07-10.96-12.18-21.76-24.51-32.45-36.93-5.34-6.21-10.64-12.46-15.89-18.77-.88-.94-.81-2.43.11-3.3,14.15-15.16,27.65-31.13,40.03-47.78,12.06-16.47,23.79-33.83,30.76-53.06,3.99-11.33,6.59-25.88-2.86-34.61-4.33-4.02-9.84-5.95-15.75-5.32-5.92.53-11.97,3.12-17.61,6.44-11.5,6.85-21.57,16.42-30.86,26.11-18.93,20.01-35.78,42.22-51.9,64.59-.63,1.16-2.07,1.59-3.23.96-1.02-.53-1.41-1.68-1.18-2.72,4.7-37.78,8.23-89.98-8.27-124.7-2.93-5.89-6.64-11.2-11.19-15.31-8.74-8-21.77-11.89-33.28-9.02-11.84,3.21-19.45,14.27-24.52,25.38-2.77,6.05-4.92,12.55-6.79,19.18-7.41,27.12-10.42,55.67-13.93,83.78.31,2.73-3.44,3.67-4.52,1.26-7.3-16.24-16.52-32.01-27.35-46.09-18.79-24.52-46.03-45.59-78.42-39.02-18.13,3.61-34.61,13.84-48.6,25.57-18.56,15.72-29.51,37.15-26.39,61.67,3.25,25.03,15.83,47.64,29.19,68.87,9.44,14.77,20.07,29.18,31.01,43.63,1.04.73,1.28,2.16.55,3.2-.42.62-1.08.88-1.75,1.02-23.87,6.28-47.93,13.87-70.08,24.52-8.1,3.98-15.85,8.31-22.9,13.75-11.13,8.42-20.81,20.4-15.68,34.71,4.5,14.18,17.49,21.31,31.66,24.01,29.76,4.96,60.15-.25,90.35-2.56,1.17-.55,2.56-.05,3.11,1.12.55,1.07.04,2.23-.75,2.97-5.3,6.01-10.49,12.24-15.46,18.53-14.6,18.58-28.27,38.14-37.65,59.84-5.59,13.2-9.61,27.84-7.54,41.72,1.46,9.8,6.35,18.32,13.48,25.07,12.5,11.94,29.28,15.27,47.55,14.6,46.71-3.02,91.33-23.83,134.09-42.48.84-.75,2.12-.68,2.88.14,0,0,.42.46.42.46,16.14,17.65,30.6,36.58,44.67,55.86,34.69,48.25,69,97.13,102.18,146.46,6.64,9.88,13.24,19.81,19.73,29.8.73,1.12.41,2.61-.71,3.34-1.05.68-2.44.43-3.21-.53h0Z"/>
    <path class="cls-1" d="M364.62,329.78c4.79,27.59-5.31,57.96-28.63,74.46-43.72,31.07-100.56.05-108.93-50.32-9.46-50.73,33.17-99.16,85.41-84.88,27.48,7.72,47.92,32.9,52.15,60.74h0ZM359.75,330.63c-4.63-25.37-23.85-48.19-49.22-54.27-45.8-10.93-81.6,31.94-73.65,75.84,4.12,24.84,22.26,47.48,46.86,54.32,46.12,12.88,84.67-31.09,76.01-75.89h0Z"/>
    <ellipse class="cls-1" cx="296.29" cy="342.2" rx="7.23" ry="7.63" transform="translate(-54.7 56.38) rotate(-9.96)"/>
  </g>
</svg>